<?xml version="1.0" standalone="no"?><!DOCTYPE svg PUBLIC "-//W3C//DTD SVG 1.1//EN"
        "http://www.w3.org/Graphics/SVG/1.1/DTD/svg11.dtd">
<svg t="1645169084090" class="icon" viewBox="0 0 1024 1024" version="1.1" xmlns="http://www.w3.org/2000/svg" p-id="3736"
     xmlns:xlink="http://www.w3.org/1999/xlink" width="200" height="200">
    <defs>
        <style type="text/css"></style>
    </defs>
    <path d="M210.432 400.896c8.192 13.312 21.504 17.92 39.936 12.288l2.048-0.512c13.824-7.68 25.088-19.968 35.84-32.256l5.12-5.12c-1.536 3.072-2.048 5.12-3.584 7.68l-2.048 3.584c-2.048 3.584-3.584 7.168-5.12 10.752-1.536 3.584-2.56 7.168-5.12 9.728l-0.512 1.536c-3.584 7.68-7.168 16.384-11.264 24.064-4.096 9.216-9.216 19.456-13.312 29.184l-0.512 3.072c-1.536 8.704-3.584 17.92 0.512 28.672l2.048 2.048c11.776 15.872 26.112 13.312 37.376 9.728l1.536-0.512c1.536-0.512 2.048-0.512 2.56-1.536v0.512c0.512 1.536 0.512 2.048 1.536 3.072l0.512 1.536 0.512 1.536c9.216 9.728 16.384 10.752 27.136 10.752h1.536l1.536-0.512c8.192-2.048 16.384-6.656 22.528-12.8 7.68 8.704 16.896 12.288 29.696 11.264l2.048-0.512c15.872-4.096 26.624-13.312 32.768-29.184 2.56-5.12 5.12-9.216 7.168-14.336 2.048-4.096 4.096-9.216 6.144-12.8l0.512-1.536 0.512-1.536c0.512-2.048 1.536-4.096 2.048-6.656 0.512 3.072 1.536 5.12 2.048 7.68l0.512 0.512 0.512 1.536c11.264 14.848 25.088 14.336 34.816 12.288l1.536-0.512c11.264-4.096 21.504-9.216 31.744-14.336 6.144-3.072 12.8-6.656 19.456-9.216 12.8-6.656 25.088-12.8 37.888-18.432l0.512-0.512c7.68-4.096 14.848-8.704 22.528-12.8l1.536-0.512c4.096-3.072 4.096-3.072 10.752-7.168l2.048-1.536c4.096-4.096 10.752-9.728 16.896-14.848l1.536-0.512 0.512-1.536c2.048-3.072 4.096-6.656 6.144-9.216l1.536-5.632c2.56-6.656 6.144-13.312 10.752-14.848h0.512c1.536-0.512 4.096-0.512 7.168-1.536 4.096-0.512 9.216-1.536 13.312-2.048h2.048c13.312-1.536 27.136-2.048 40.448-4.096 12.8-0.512 25.088-2.048 37.888-3.584 20.992-2.048 43.008-4.096 64.512-5.632h1.536c20.48-4.096 18.432-23.04 16.896-31.232 0-1.536-0.512-3.584-0.512-5.12l-0.512-43.52 0.512-56.832c1.536-25.088 1.536-25.088 1.536-29.696v-3.072l-1.536-2.048c-3.584-5.12-7.168-9.216-16.384-9.216h-1.536c-2.56-0.512-2.56-0.512-28.16 7.168l-43.52 11.264c-18.944 4.096-39.936 9.216-64 15.872-2.56 0.512-4.096 0.512-7.168 1.536-2.56 0.512-7.68 1.536-16.896 3.584l-3.584 0.512-0.512 0.512c-2.56 0.512-9.216 2.048-13.824 3.584-12.8 3.584-16.896 4.096-18.944 5.12-5.12 1.536-9.728 2.048-14.848 3.584-7.168 1.536-15.36 3.584-23.04 5.632-3.584 0.512-7.68 2.048-11.776 3.072-4.096 1.536-8.192 2.048-12.8 4.096l-41.472-2.048-3.584-0.512h-2.048c-15.36-0.512-30.72-2.048-46.08-3.584h-0.512c-5.12 0-10.752-0.512-15.36-0.512-10.752-0.512-21.504-1.536-33.792-0.512l-2.56 0.512c-9.216 3.072-17.408 5.632-26.112 8.704l-2.048 0.512c-1.536 0.512-2.048 0.512-3.584 1.536-2.048 1.536-5.12 2.048-7.68 4.096-2.56 0.512-6.144 3.072-8.192 4.096-1.536 0.512-2.56 1.536-4.096 2.048l-4.096 3.072c-6.144 4.096-11.776 8.704-17.408 13.312-5.12 3.072-9.216 6.656-13.312 9.728-3.584 3.072-6.144 5.632-9.728 7.68l-1.536 1.536c-1.536 1.536-2.56 3.072-4.096 3.584l-2.048 1.536-1.536 2.048c-1.536 2.048-5.12 5.12-8.192 7.168-4.096 3.072-9.216 6.656-12.8 11.264-9.216 6.656-16.896 14.336-24.576 22.016-6.144 6.656-12.8 12.8-18.944 17.92l-1.536 0.512-0.512 1.536c-0.512 0.512-1.536 1.536-2.048 3.072-13.824 9.728-14.848 26.112-15.36 34.304v3.072c0.512 5.632 0.512 6.656 2.048 10.752l1.024 2.048z m24.576-33.28l2.048-1.536 1.536-2.048c0-0.512 0.512-1.536 2.048-3.072 7.68-5.632 13.824-12.8 20.48-19.456 7.68-7.68 14.848-14.848 23.04-20.48l2.048-1.536 1.536-2.048c0.512-2.048 4.096-5.12 7.68-7.168 4.096-3.072 9.728-6.656 13.312-12.288 2.048-1.536 3.584-3.072 5.632-5.12 3.584-2.048 6.144-5.12 9.728-7.68 3.584-3.584 7.68-6.656 11.776-9.216l1.536-1.536c4.096-4.096 9.728-8.704 15.36-12.288l1.536-0.512c2.56-1.536 4.096-2.048 6.144-3.584 1.536-0.512 3.584-2.048 4.096-2.048l2.048-2.048 2.048-1.536c0.512-0.512 2.048-1.536 4.096-2.048s3.584-1.536 5.12-2.048c7.68-3.072 15.36-5.12 23.04-7.68 9.728-0.512 19.456 0 30.208 0.512 5.632 0 10.752 0.512 16.384 0.512 15.36 1.536 30.72 3.072 46.08 3.584l2.048 0.512 47.616 3.072h0.512c5.632-0.512 10.752-1.536 15.36-3.072 4.096-1.536 7.68-2.048 11.776-3.072h1.536c7.168-2.048 14.848-4.096 22.528-5.632 5.632-0.512 10.752-2.048 16.384-3.584l1.536-0.512c2.048-0.512 10.752-3.072 16.896-4.096 9.728-2.048 14.848-3.584 17.408-4.096 9.216-2.048 13.824-3.072 16.896-3.584 2.048 0 3.584-0.512 5.12-1.536h1.536c24.064-6.656 45.056-11.264 64-15.872l45.056-11.264c12.8-4.096 18.432-6.656 21.504-7.168 0 3.584-0.512 9.728-1.536 22.016l-2.56 47.104 0.512 55.808c0 3.072 0.512 5.12 0.512 7.168 0.512 2.048 0.512 6.656 0.512 7.68h-0.512c-21.504 1.536-43.52 3.584-64.512 5.632-12.8 1.536-25.088 2.048-37.888 3.584h-0.512c-13.312 2.048-26.112 3.584-39.424 4.096h-4.096c-4.096 0.512-9.216 1.536-13.312 2.048-6.144 0.512-9.216 1.536-11.264 2.048-12.8 4.096-18.432 16.896-21.504 25.6l-0.512 1.536c-1.536 2.048-3.584 5.12-5.12 7.168-5.12 4.096-11.776 9.216-17.408 15.872-5.632 3.584-6.144 4.096-10.752 7.68-7.168 3.584-13.824 7.68-20.992 12.288-12.8 6.656-25.088 12.288-37.376 18.432-7.168 3.072-13.824 6.656-20.48 9.216-9.728 4.096-18.944 9.216-28.672 12.8-7.168 1.536-10.752 0-13.312-3.584-2.56-7.68-0.512-14.848 12.8-25.088 5.632-3.584 9.728-7.168 14.848-10.752 5.12-3.584 9.728-7.168 14.848-9.728l1.536-1.536c2.56-2.048 5.632-3.584 8.192-5.632 2.56-2.048 6.144-4.096 9.728-7.168 2.048-1.536 3.584-2.048 5.12-3.072 6.144-3.584 12.8-7.168 18.944-11.264l0.512-0.512 3.584-1.536 0.512-5.632c0-2.048 0.512-3.584 0.512-5.12l0.512-3.072-0.512-3.072c-2.56-7.68-5.632-11.264-9.216-14.848l-2.048-2.048-4.096-3.584c-13.312-9.216-41.984-29.184-57.344-13.312l-1.536 1.536-0.512 2.048c-1.536 5.632-4.096 11.264-7.168 16.896-2.56 5.12-5.12 9.728-7.168 15.872-1.536 2.048-2.048 4.096-3.584 7.168-0.512 2.048-2.048 5.12-3.584 7.68l-0.512 1.536c-0.512 3.072-2.56 6.656-4.096 9.216-1.536 3.072-3.584 6.656-5.12 9.728-4.096 5.632-7.168 12.288-9.216 17.92-1.536 4.096-2.56 7.68-5.12 11.264l-0.512 1.536c-1.536 3.584-2.56 6.656-4.096 9.216-2.56 5.632-5.12 10.752-7.168 16.384-2.56 5.12-5.12 9.728-7.168 14.848-1.536 4.096-3.584 8.704-5.632 12.288l-0.512 1.536c-4.096 9.728-9.216 14.848-18.944 17.92-7.168 0-10.752-2.048-14.848-8.704l-2.048-3.072-2.56-1.536c-4.096-2.048-8.192-3.584-15.36 0.512l-1.536 0.512-1.536 1.536c-5.12 6.656-9.728 9.728-15.36 11.264-6.144 0-7.68 0-10.752-3.072-2.048-5.632-7.168-16.384-19.456-13.312h-2.56l-2.048 1.536c-3.584 2.048-4.096 3.072-5.632 3.584-7.68 2.048-10.752 1.536-13.312-2.048-0.512-4.096 0-8.704 1.536-14.848 3.584-9.216 8.192-17.92 12.8-27.136 3.584-7.68 7.68-16.384 11.264-24.064 2.048-4.096 4.096-7.68 5.632-12.288 0.512-2.048 1.536-3.584 2.048-5.12h1.536l2.048-5.12c2.048-5.632 5.632-11.264 8.192-16.896 3.584-6.656 7.168-13.312 9.728-20.48 0.512 0 0.512-0.512 0.512-0.512l3.584-4.096-1.536-5.12c-0.512-4.096-2.56-10.752-9.216-13.312-6.144-3.072-12.8 0-14.848 1.536l-2.048 0.512-3.584 4.096c-3.584 4.096-7.168 8.704-10.752 10.752l-2.048 0.512-1.536 1.536c-0.512 0.512-1.536 2.048-2.048 3.072-2.56 3.072-6.144 5.632-9.216 9.216-9.216 9.216-18.944 19.968-30.208 26.112-9.216 3.072-12.8 0.512-14.848-3.072-0.512-1.536-0.512-2.048-1.536-5.12 2.048-9.216 3.584-14.336 8.704-16.896z m215.552 44.032c0.512-1.536 2.048-3.072 2.56-4.096l0.512-1.536 0.512-1.536c1.536-3.072 2.56-5.632 4.096-8.704 2.048-3.584 4.096-7.168 5.632-11.264 1.536-3.072 2.56-5.632 2.56-9.216 0.512-2.048 2.048-4.096 2.56-6.656l0.512-1.536c1.536-5.12 4.096-9.216 6.144-14.336 2.048-5.12 5.12-9.728 7.168-15.872 3.584 0 11.264 2.048 30.72 16.384l2.048 1.536c0 0.512 0.512 1.536 1.536 2.048 2.048 2.048 2.56 3.072 3.584 4.096-4.096 3.584-8.192 5.632-13.312 8.704-1.536 1.536-3.584 2.048-5.632 3.584l-2.048 1.536c-2.048 2.048-5.12 3.584-7.68 5.632-2.56 2.048-7.168 4.096-10.752 7.68-5.12 3.584-9.728 7.168-14.848 10.752s-9.216 6.656-13.824 9.728c0.512 1.024-0.512 2.048-2.048 3.072z"
          p-id="3737"></path>
    <path d="M856.576 603.648l-0.512-1.536c-8.192-13.312-19.456-21.504-31.232-23.04-10.24-1.536-20.48 2.56-29.696 10.24l-1.536 1.536c-8.192 10.24-8.192 10.24-18.432 26.112-1.536 1.536-2.048 2.56-3.072 3.072l-0.512 1.024-1.536 3.072c-2.048 3.072-4.608 6.144-6.656 9.216-3.072 4.608-6.656 9.216-9.728 14.848-4.608 5.632-6.656 5.632-14.848 6.144-19.968-1.536-40.448-8.704-61.952-17.408l-1.536-1.024c-11.776-2.56-23.552-6.144-33.28-10.24l-1.536-1.024h-1.536c-2.048 0-10.24-1.536-13.312-3.072l-0.512-1.024-3.072-1.024c-3.584-1.024-7.168-2.56-11.264-3.072-9.728-3.072-19.456-5.632-28.16-9.216 0-1.024-0.512-1.024-1.536-1.536v-1.536c0.512-1.536 0.512-1.536 0.512-2.56 1.536-1.024 3.584-1.536 5.12-1.536 3.584 1.024 6.656 1.024 9.728 1.536 8.192 3.072 16.384 6.144 23.552 8.704 7.168 2.56 13.312 4.608 19.968 7.168l1.536 1.024c8.192 1.536 16.384 4.608 25.088 8.704l1.536 1.024c3.072 1.024 6.656 1.536 10.24 3.072 21.504 7.168 53.248 17.92 71.168-11.776v-4.096l0.512-1.536c4.608-17.92-2.048-29.184-9.728-38.4l-0.512-1.024-1.536-1.024c-3.072-2.56-4.608-3.072-5.12-4.096l-0.512-1.536-3.072-1.536c-19.968-11.264-41.472-17.408-61.952-23.04-4.608-1.024-8.192-1.536-12.8-3.072-0.512 0-1.536-1.024-2.048-1.024l-50.176-14.848c-11.264-4.608-22.016-7.68-32.256-11.264-8.192-1.536-16.384-4.096-23.552-7.168l-29.696-5.632h-0.512c-20.48-1.536-43.52-1.536-68.608 13.312l-3.584 2.56v1.024c-1.536 1.024-3.072 1.536-4.608 2.56s-3.584 1.536-6.656 3.072c-1.536 1.024-3.072 1.024-4.608 1.024-8.704 1.536-17.92 2.56-26.624 7.68l-1.536 1.024-1.536 1.536c-6.144 6.144-11.776 9.216-23.552 11.264-8.192 0-9.728-1.024-11.776-1.024-0.512 0-0.512-1.024-1.536-1.024-1.536-1.024-3.584-2.56-6.656-4.096-4.608-4.096-8.192-4.608-11.264-4.608-3.072 1.024-7.168 1.536-11.776 6.144-1.536 1.024-2.048 1.536-3.584 2.56s-3.072 1.024-4.608 1.536c-6.656 0-11.776-1.024-19.456-1.536l-6.656-4.096c-1.536-1.024-2.048-2.56-3.584-3.072-7.168-11.776-19.456-7.168-23.552-5.632-3.584 0-7.168-1.024-11.264-1.536-3.072-2.56-6.656-6.144-9.728-10.24-3.072-4.096-6.144-7.68-9.728-11.264l-2.048-2.56-3.072-1.024c-19.968-4.096-36.864-7.168-51.712-10.24h-3.584c-3.072 0-12.8 1.024-16.384 10.24l-0.512 2.56v2.56c0.512 64 0.512 64 0.512 98.816v11.264l-0.512 86.528v4.096c1.536 4.096 3.072 10.24 11.264 12.8l2.048 1.024h2.048c8.704-1.536 18.432-3.072 27.136-4.608 11.264-2.56 22.016-4.096 33.28-5.632h0.512c11.776-2.56 23.552-4.096 36.352-5.632 12.8-1.536 26.624-3.072 39.936-6.144 11.264-1.024 23.04-2.56 33.792-3.072h1.536c8.704-2.56 17.92-3.072 29.696-4.096 8.704-1.024 26.112-2.56 41.472-4.096 16.896-1.536 27.136-2.56 31.744-3.072h5.12c4.608 0 17.92-1.024 23.552 0l3.584 1.024c3.584 1.024 7.168 1.024 11.776 1.536 11.776 1.536 26.112 3.072 35.328 7.68l2.048 1.024c6.656 1.536 13.312 4.096 19.968 6.144 6.144 1.536 12.8 4.096 18.432 5.632 9.728 3.072 19.456 6.144 28.16 8.704 13.312 3.072 26.624 7.168 38.4 12.8l1.536 1.024h1.536c4.608 0 8.192 1.536 11.776 3.072l2.048 1.024c6.656 1.024 12.8 3.072 19.456 5.632 6.144 2.56 11.264 4.096 16.896 5.632 12.8 5.632 26.624 7.68 40.448 7.68 11.264 0 22.016-1.536 29.696-6.144l1.536-1.024c23.552-11.264 36.864-31.744 49.664-52.224 2.048-4.608 5.12-9.216 8.192-13.312 4.608-4.096 6.656-8.704 9.728-12.8 0.512-1.024 1.536-2.56 2.048-3.072l1.536-2.56c1.536-2.56 3.584-6.144 6.656-9.216 2.048-3.072 4.608-5.632 6.656-8.704 4.608-4.608 6.656-11.264 8.192-15.872l1.536-4.608v-2.56-10.752l-2.56-9.216z m-15.36 16.384v4.608c-1.536 4.096-3.072 7.168-4.608 8.704l-1.536 1.536c-1.536 2.56-3.072 4.608-5.12 7.168-3.584 4.096-7.168 8.704-9.728 14.336-0.512 1.536-1.536 2.56-2.048 4.096-0.512 2.56-3.584 6.144-4.608 7.168l-1.536 1.536-1.536 1.536c-3.072 4.608-6.656 10.24-9.728 14.848-11.264 17.92-22.016 35.328-38.912 44.032-19.968 5.632-41.472 4.608-59.904-3.072l-1.536-1.024c-5.12-1.024-10.24-3.072-15.36-4.608-6.656-2.56-13.312-4.608-20.48-6.144-5.12-2.56-10.24-4.096-15.36-3.072-12.8-5.632-26.112-9.216-38.912-13.312-9.728-3.072-18.432-5.632-27.136-8.704h-0.512c-6.144-1.536-11.776-3.072-17.92-5.632-6.144-2.56-13.312-4.608-19.968-6.144-12.8-5.632-27.136-7.68-40.448-9.216-3.072-1.024-6.656-1.024-9.728-1.536-4.608-2.56-13.312-2.56-33.28-1.536h-6.656c-3.584 1.024-17.92 1.536-31.744 3.072-15.36 1.536-33.28 3.072-41.472 4.096-11.776 1.024-22.016 1.536-31.744 4.096-11.264 1.024-23.04 2.56-33.792 3.072h-1.536c-12.8 3.072-25.088 4.608-38.4 6.144-12.8 1.536-25.088 3.072-37.888 5.632-11.776 1.536-23.04 3.072-33.792 5.632-6.144 1.024-12.8 2.56-18.432 3.072l0.512-79.872v-1.024-11.264-89.088c12.8 3.072 27.136 6.144 44.544 8.704 2.048 1.536 3.584 4.096 6.144 6.144 4.608 5.632 9.728 11.264 15.36 15.872l1.536 1.536 2.048 1.024c6.656 1.536 12.8 2.56 19.456 2.56h2.048l3.584-1.536v1.024l3.072 1.536c0.512 0 0.512 0 2.048 1.536l1.536 1.536 13.312 7.68 3.072 1.024c8.704 1.024 16.384 1.536 26.112 1.536h4.608l1.536-1.536c0.512-1.024 2.048-1.024 3.584-1.536l2.048-1.024c2.048-1.536 3.584-2.56 6.144-4.096 3.584 1.536 6.656 3.072 8.192 4.096l0.512 1.536h4.608c5.12 1.024 5.12 1.024 17.92 1.536h1.024c11.776-1.536 26.112-4.608 36.864-17.408 4.608-2.56 10.24-3.072 16.384-4.096 2.048 0 4.608-1.024 6.656-1.024h1.536l1.536-1.024c3.072-1.536 5.12-3.072 7.168-4.096 3.072-1.536 5.12-2.56 9.728-4.608l3.584-1.024v-1.024c17.92-9.216 33.792-10.24 52.224-8.704l26.624 4.608c8.192 3.072 16.384 5.632 24.576 7.68 10.24 3.072 19.968 5.632 29.696 10.24l50.176 14.848c0.512 0 0.512 1.024 1.536 1.024l2.048 1.024c4.608 1.536 9.728 2.56 13.824 4.096 18.432 4.608 37.888 10.24 54.784 19.456 1.536 1.536 3.584 3.072 7.168 5.632 4.608 6.144 6.144 9.216 4.608 14.848-8.704 11.776-24.576 7.68-45.568 1.024-3.584-1.024-7.168-2.56-11.264-3.072-9.728-4.608-18.432-7.168-26.624-9.216-6.656-3.072-13.312-5.632-19.968-7.68-8.192-2.56-15.36-5.632-23.04-8.704l-1.536-1.024h-1.536c-3.584-1.024-8.192-1.024-12.8-1.536h-3.072c-12.8 2.56-22.016 6.144-24.576 25.088v3.072c0.512 2.56 0.512 4.608 1.536 7.168l0.512 4.096 2.048 2.56c2.048 1.536 3.584 4.096 6.144 5.632l1.536 1.536 1.536 1.024c11.264 4.608 22.016 7.68 32.256 11.264 3.072 1.024 6.656 1.536 9.728 2.56 6.656 4.096 16.896 5.632 20.48 6.144 13.312 5.632 26.624 8.704 35.328 11.264 23.04 8.704 45.056 16.384 68.096 17.408h1.024c13.824-1.024 20.48-2.56 31.232-14.336l0.512-1.024 0.512-1.536c1.536-4.096 5.12-7.68 8.192-12.8 2.048-3.072 4.608-6.144 6.656-9.216 0.512-1.024 1.536-1.536 2.048-2.56 0 0 0.512-1.536 0.512-2.56l1.536-1.536c10.24-15.872 10.24-15.872 17.92-25.088 3.584-3.072 8.192-4.608 11.776-4.096 5.12 1.024 11.264 4.608 15.36 11.776l2.048 4.608v1.024z"
          p-id="3738"></path>
    <path d="M741.888 811.008c-10.752-24.576-25.088-33.28-44.544-45.056-58.88-30.208-121.856-34.304-184.32-37.888-44.032 0.512-89.6 3.584-133.632 11.264-33.28 7.68-47.616 13.312-57.344 14.848-30.72 16.384-66.56 26.624-79.36 69.12 0 14.848-2.048 30.72 11.264 36.352 44.032-3.072 87.04-3.584 131.072-5.632h21.504c103.936 0.512 207.872-3.072 311.808 0.512 14.336 0 15.36-1.536 26.112-11.776 0-6.656 3.584-28.672-2.56-31.744z"
          p-id="3739"></path>
</svg>