<?xml version="1.0" standalone="no"?><!DOCTYPE svg PUBLIC "-//W3C//DTD SVG 1.1//EN" "http://www.w3.org/Graphics/SVG/1.1/DTD/svg11.dtd"><svg t="1647848512734" class="icon" viewBox="0 0 1024 1024" version="1.1" xmlns="http://www.w3.org/2000/svg" p-id="6335" xmlns:xlink="http://www.w3.org/1999/xlink" width="128" height="128"><defs><style type="text/css"></style></defs><path d="M510.672296 925.58802c229.149457 0 414.915727-185.76137 414.915726-414.915727 0-229.149457-185.76627-414.915727-414.920626-414.915726-229.149457 0-414.910827 185.76627-414.910827 414.915726 0 229.149457 185.76137 414.920626 414.915727 414.920626z m0 95.751667C228.639933 1021.339687 0.000002 792.704655 0.000002 510.672293S228.639933 0 510.672296 0s510.667394 228.635032 510.667393 510.667394-228.635032 510.667394-510.667393 510.667394zM351.082917 494.715315c44.069088 0 79.794689-35.725602 79.794689-79.794689S395.156904 335.130836 351.082917 335.130836 271.298026 370.851538 271.298026 414.920626c0 44.069088 35.720702 79.794689 79.78979 79.794689z m319.168958 0c44.064188 0 79.78979-35.725602 79.78979-79.794689s-35.725602-79.78979-79.78979-79.78979c-44.069088 0-79.794689 35.720702-79.794689 79.78979 0 44.069088 35.725602 79.794689 79.794689 79.794689z m-159.584479 245.75804c-81.102799 0-154.160968-51.369025-187.177264-127.670523 0 0-3.086551-32.02664-36.793646-32.026639s-31.365236 32.02664-31.365236 32.026639c35.534529 109.430477 135.847433 191.503335 255.331247 191.503335 119.327037 0 225.318214-82.298225 255.336147-191.503335 0 0 0-32.02664-31.100675-32.026639-31.095775 0-36.024458 32.02664-36.024458 32.026639-28.538347 74.062523-105.060313 127.670523-188.206115 127.670523z" p-id="6336"></path></svg>